<svg width="45" height="41" viewBox="0 0 45 41" fill="none" xmlns="http://www.w3.org/2000/svg">
<path d="M19.8632 40.2752C22.0475 40.2752 23.8183 38.5045 23.8183 36.3202C23.8183 34.1358 22.0475 32.3651 19.8632 32.3651C17.6789 32.3651 15.9081 34.1358 15.9081 36.3202C15.9081 38.5045 17.6789 40.2752 19.8632 40.2752Z" fill="#0099FF"/>
<path d="M33.1346 40.2752C35.3189 40.2752 37.0897 38.5045 37.0897 36.3202C37.0897 34.1358 35.3189 32.3651 33.1346 32.3651C30.9503 32.3651 29.1795 34.1358 29.1795 36.3202C29.1795 38.5045 30.9503 40.2752 33.1346 40.2752Z" fill="#0099FF"/>
<path d="M1.31835 3.36155H6.81614L13.181 25.6428L12.6818 26.6413C11.3673 29.2674 13.2754 32.3653 16.2197 32.3653H38.408C39.1367 32.3653 39.7263 31.7756 39.7263 31.0469C39.7263 30.3182 39.1367 29.7286 38.408 29.7286H16.2197C15.2407 29.7286 14.6008 28.6977 15.0404 27.8206L15.4048 27.0919H38.408C38.9963 27.0919 39.5139 26.7018 39.6761 26.1353L44.9496 7.67836C45.0628 7.28057 44.983 6.85308 44.7346 6.52226C44.4848 6.19267 44.0947 5.99826 43.6815 5.99826H10.3115L9.07817 1.68136C8.91592 1.11491 8.39843 0.724762 7.81 0.724762H1.31835C0.589655 0.724762 0 1.31442 0 2.04311C0 2.77181 0.589655 3.36155 1.31835 3.36155Z" fill="#0099FF"/>
</svg>
