<svg width="45" height="45" viewBox="0 0 45 45" fill="none" xmlns="http://www.w3.org/2000/svg">
<g clip-path="url(#clip0_31_365)">
<path d="M19.8632 42.2752C22.0475 42.2752 23.8182 40.5045 23.8182 38.3202C23.8182 36.1358 22.0475 34.3651 19.8632 34.3651C17.6788 34.3651 15.9081 36.1358 15.9081 38.3202C15.9081 40.5045 17.6788 42.2752 19.8632 42.2752Z" fill="#008AE7"/>
<path d="M33.1345 42.2752C35.3189 42.2752 37.0896 40.5045 37.0896 38.3202C37.0896 36.1358 35.3189 34.3651 33.1345 34.3651C30.9502 34.3651 29.1794 36.1358 29.1794 38.3202C29.1794 40.5045 30.9502 42.2752 33.1345 42.2752Z" fill="#008AE7"/>
<path d="M1.31835 5.36155H6.81614L13.181 27.6428L12.6818 28.6413C11.3673 31.2674 13.2754 34.3653 16.2197 34.3653H38.408C39.1367 34.3653 39.7263 33.7756 39.7263 33.0469C39.7263 32.3182 39.1367 31.7286 38.408 31.7286H16.2197C15.2407 31.7286 14.6008 30.6977 15.0404 29.8206L15.4048 29.0919H38.408C38.9963 29.0919 39.5139 28.7018 39.6761 28.1353L44.9496 9.67836C45.0628 9.28057 44.983 8.85308 44.7346 8.52226C44.4848 8.19267 44.0947 7.99826 43.6815 7.99826H10.3115L9.07817 3.68136C8.91592 3.11491 8.39843 2.72476 7.81 2.72476H1.31835C0.589655 2.72476 0 3.31442 0 4.04311C0 4.77181 0.589655 5.36155 1.31835 5.36155Z" fill="#008AE7"/>
</g>
<defs>
<clipPath id="clip0_31_365">
<rect width="45" height="45" fill="white"/>
</clipPath>
</defs>
</svg>
