<svg width="17" height="17" viewBox="0 0 17 17" fill="none" xmlns="http://www.w3.org/2000/svg">
<g clip-path="url(#clip0_1_278)">
<path d="M7.50387 15.9707C8.32906 15.9707 8.99801 15.3018 8.99801 14.4766C8.99801 13.6514 8.32906 12.9824 7.50387 12.9824C6.67868 12.9824 6.00973 13.6514 6.00973 14.4766C6.00973 15.3018 6.67868 15.9707 7.50387 15.9707Z" fill="#0099FF"/>
<path d="M12.5175 15.9707C13.3427 15.9707 14.0117 15.3018 14.0117 14.4766C14.0117 13.6514 13.3427 12.9824 12.5175 12.9824C11.6923 12.9824 11.0234 13.6514 11.0234 14.4766C11.0234 15.3018 11.6923 15.9707 12.5175 15.9707Z" fill="#0099FF"/>
<path d="M0.498044 2.02542H2.57499L4.97948 10.4428L4.79088 10.82C4.2943 11.8121 5.01517 12.9824 6.12743 12.9824H14.5097C14.785 12.9824 15.0077 12.7596 15.0077 12.4843C15.0077 12.2091 14.785 11.9863 14.5097 11.9863H6.12743C5.75759 11.9863 5.51587 11.5969 5.68192 11.2655L5.81958 10.9902H14.5097C14.7319 10.9902 14.9275 10.8429 14.9888 10.6288L16.9809 3.65621C17.0237 3.50594 16.9936 3.34444 16.8997 3.21946C16.8054 3.09495 16.658 3.02151 16.5019 3.02151H3.89547L3.42953 1.39068C3.36824 1.17668 3.17274 1.0293 2.95045 1.0293H0.498044C0.222758 1.0293 0 1.25206 0 1.52734C0 1.80263 0.222758 2.02542 0.498044 2.02542Z" fill="#0099FF"/>
</g>
<defs>
<clipPath id="clip0_1_278">
<rect width="17" height="17" fill="white"/>
</clipPath>
</defs>
</svg>
