<svg width="20" height="20" viewBox="0 0 20 20" fill="none" xmlns="http://www.w3.org/2000/svg">
<g clip-path="url(#clip0_35_1191)">
<path d="M11.1044 10.0008L19.7707 1.33448C20.0758 1.02937 20.0758 0.534678 19.7707 0.229601C19.4656 -0.0754772 18.9709 -0.0755163 18.6658 0.229601L9.9995 8.89592L1.33323 0.229601C1.02811 -0.0755163 0.533427 -0.0755163 0.228349 0.229601C-0.0767284 0.534717 -0.0767674 1.0294 0.228349 1.33448L8.89462 10.0008L0.228349 18.6671C-0.0767674 18.9722 -0.0767674 19.4669 0.228349 19.772C0.380888 19.9245 0.580848 20.0007 0.780809 20.0007C0.98077 20.0007 1.18069 19.9245 1.33327 19.772L9.9995 11.1057L18.6658 19.772C18.8183 19.9245 19.0183 20.0007 19.2182 20.0007C19.4182 20.0007 19.6181 19.9245 19.7707 19.772C20.0758 19.4668 20.0758 18.9722 19.7707 18.6671L11.1044 10.0008Z" fill="#D7D7D7"/>
</g>
<defs>
<clipPath id="clip0_35_1191">
<rect width="20" height="20" fill="white"/>
</clipPath>
</defs>
</svg>
