<svg width="38" height="38" viewBox="0 0 38 38" fill="none" xmlns="http://www.w3.org/2000/svg">
<g clip-path="url(#clip0_20_150)">
<path d="M19.0865 0C19.0764 0 19.056 0 19.0255 0C8.72194 0 0.342705 8.37924 0.342705 18.6827C0.342705 22.8876 1.77827 26.9703 4.40506 30.2589L1.68664 36.5815C1.46265 37.1008 1.707 37.7015 2.21607 37.9153C2.39933 37.9967 2.60296 38.0171 2.79641 37.9865L12.7639 36.2354C14.7595 36.9582 16.8568 37.3248 18.9745 37.3146C29.2781 37.3146 37.6573 28.9353 37.6573 18.6318C37.6777 8.35887 29.3595 0.0101813 19.0865 0ZM12.6927 14.9258H18.1906C18.7506 14.9258 19.2087 15.384 19.2087 15.944C19.2087 16.5039 18.7506 16.9621 18.1906 16.9621H12.6927C12.1327 16.9621 11.6745 16.5039 11.6745 15.944C11.6745 15.384 12.1327 14.9258 12.6927 14.9258ZM25.3175 22.0528H12.6927C12.1327 22.0528 11.6745 21.5946 11.6745 21.0346C11.6745 20.4747 12.1327 20.0165 12.6927 20.0165H25.3175C25.8775 20.0165 26.3357 20.4747 26.3357 21.0346C26.3357 21.5946 25.8775 22.0528 25.3175 22.0528Z" fill="#0094F6"/>
</g>
<defs>
<clipPath id="clip0_20_150">
<rect width="38" height="38" fill="white"/>
</clipPath>
</defs>
</svg>
