<svg width="63" height="63" viewBox="0 0 63 63" fill="none" xmlns="http://www.w3.org/2000/svg">
<path d="M53.1562 45.0352C51.7965 45.0352 50.6953 46.1363 50.6953 47.4961C50.6953 48.8559 51.7965 49.957 53.1562 49.957C54.516 49.957 55.6172 48.8559 55.6172 47.4961C55.6172 46.1363 54.516 45.0352 53.1562 45.0352Z" fill="#0099FF"/>
<path d="M51.9258 35.1914C51.2466 35.1914 50.6953 35.7427 50.6953 36.4219C50.6953 37.101 51.2466 37.6523 51.9258 37.6523C52.6049 37.6523 53.1562 37.101 53.1562 36.4219C53.1562 35.7427 52.6049 35.1914 51.9258 35.1914Z" fill="#0099FF"/>
<path d="M15.5039 45.0352C14.1441 45.0352 13.043 46.1363 13.043 47.4961C13.043 48.8559 14.1441 49.957 15.5039 49.957C16.8637 49.957 17.9648 48.8559 17.9648 47.4961C17.9648 46.1363 16.8637 45.0352 15.5039 45.0352Z" fill="#0099FF"/>
<path d="M57.8282 30.3484L55.7066 21.862C56.4607 21.1405 56.8477 20.1835 56.8477 19.1953C56.8477 17.1598 55.1918 15.5039 53.1562 15.5039H43.3125V11.8125C43.3125 9.77694 41.6567 8.12109 39.6211 8.12109H3.69141C1.65585 8.12109 0 9.77694 0 11.8125V43.8047C0 45.8402 1.65585 47.4961 3.69141 47.4961H8.12109C8.12109 51.5672 11.4328 54.8789 15.5039 54.8789C19.575 54.8789 22.8867 51.5672 22.8867 47.4961H45.7734C45.7734 51.5672 49.0851 54.8789 53.1562 54.8789C57.2274 54.8789 60.5391 51.5672 60.5391 47.4961C60.5391 47.4259 60.5357 47.3562 60.5338 47.286C61.9685 46.7799 63 45.4105 63 43.8047V36.4219C63 33.363 60.7563 30.8194 57.8282 30.3484ZM53.4259 22.8867L55.2716 30.2695H45.0525L47.8739 27.4481C48.3545 26.9675 48.3545 26.1888 47.8739 25.7081C47.3932 25.2275 46.6146 25.2275 46.1339 25.7081L43.3125 28.5291V22.8867H53.4259ZM54.3867 19.1953C54.3867 19.8745 53.8354 20.4258 53.1562 20.4258H43.3125V17.9648H53.1562C53.8349 17.9648 54.3867 18.5166 54.3867 19.1953ZM15.5039 52.418C12.7901 52.418 10.582 50.2099 10.582 47.4961C10.582 44.7453 12.83 42.5742 15.5039 42.5742C18.184 42.5742 20.4258 44.7511 20.4258 47.4961C20.4258 50.2099 18.2177 52.418 15.5039 52.418ZM22.4642 45.0352C21.4366 42.1315 18.6551 40.1133 15.5039 40.1133C12.3513 40.1133 9.56882 42.133 8.54311 45.0352H3.69141C3.01273 45.0352 2.46094 44.4834 2.46094 43.8047V11.8125C2.46094 11.1338 3.01273 10.582 3.69141 10.582H39.6211C40.2998 10.582 40.8516 11.1338 40.8516 11.8125V45.0352H22.4642ZM53.1562 52.418C50.4425 52.418 48.2344 50.2099 48.2344 47.4961C48.2344 44.7453 50.4824 42.5742 53.1562 42.5742C55.8364 42.5742 58.0781 44.7511 58.0781 47.4961C58.0781 50.2099 55.87 52.418 53.1562 52.418ZM60.0291 44.8001C58.9375 42.0229 56.2218 40.1133 53.1562 40.1133C50.0037 40.1133 47.2212 42.133 46.1954 45.0352H43.3125V32.7305H56.8477C58.4516 32.7305 59.8195 33.7591 60.3276 35.1914H56.8477C56.168 35.1914 55.6172 35.7422 55.6172 36.4219C55.6172 37.1015 56.168 37.6523 56.8477 37.6523H60.5391V43.8047C60.5391 44.2137 60.3372 44.5761 60.0291 44.8001V44.8001Z" fill="#0099FF"/>
<path d="M21.6562 15.5039C15.55 15.5039 10.582 20.4719 10.582 26.5781C10.582 32.6843 15.55 37.6523 21.6562 37.6523C27.7625 37.6523 32.7305 32.6843 32.7305 26.5781C32.7305 20.4719 27.7625 15.5039 21.6562 15.5039ZM21.6562 35.1914C16.9069 35.1914 13.043 31.3274 13.043 26.5781C13.043 21.8288 16.9069 17.9648 21.6562 17.9648C26.4056 17.9648 30.2695 21.8288 30.2695 26.5781C30.2695 31.3274 26.4056 35.1914 21.6562 35.1914Z" fill="#0099FF"/>
<path d="M26.5781 25.3477H22.8867V21.6562C22.8867 20.9766 22.3359 20.4258 21.6562 20.4258C20.9766 20.4258 20.4258 20.9766 20.4258 21.6562V26.5781C20.4258 27.2578 20.9766 27.8086 21.6562 27.8086H26.5781C27.2578 27.8086 27.8086 27.2578 27.8086 26.5781C27.8086 25.8985 27.2578 25.3477 26.5781 25.3477Z" fill="#0099FF"/>
</svg>
