<svg width="63" height="63" viewBox="0 0 63 63" fill="none" xmlns="http://www.w3.org/2000/svg">
<path d="M37.6562 29.5312C38.3354 29.5312 38.8867 28.9799 38.8867 28.3008C38.8867 27.6216 38.3354 27.0703 37.6562 27.0703C36.9756 27.0703 36.4257 27.6216 36.4257 28.3008C36.4257 28.9799 36.9756 29.5312 37.6562 29.5312Z" fill="#0099FF"/>
<path d="M25.3515 29.5312C26.0307 29.5312 26.582 28.9799 26.582 28.3008C26.582 27.6216 26.0307 27.0703 25.3515 27.0703C24.6709 27.0703 24.121 27.6216 24.121 28.3008C24.121 28.9799 24.6709 29.5312 25.3515 29.5312Z" fill="#0099FF"/>
<path d="M4.42969 59.0687V61.7695C4.42969 62.4492 4.98051 63 5.66016 63H57.3398C58.0195 63 58.5703 62.4492 58.5703 61.7695V59.0663C58.5703 54.1728 55.8215 49.6504 50.7342 47.7936C52.5727 46.1878 53.6903 43.8354 53.6903 41.2918C53.6903 40.6127 53.1394 40.0614 52.4598 40.0614C49.4999 40.0614 47.0053 37.9681 46.4045 35.1914H49.9609C51.994 35.1914 53.6484 33.5356 53.6484 31.5V25.8398C53.6484 24.2349 52.6194 22.8665 51.1875 22.3594V19.6875C51.1875 8.83198 42.3574 0 31.5038 0C20.6253 0 11.8125 8.8041 11.8125 19.6875V22.3614C10.3806 22.8704 9.35156 24.2383 9.35156 25.8398V31.5C9.35156 33.5356 11.0093 35.1914 13.0468 35.1914H16.5955C15.9956 37.9681 13.5034 40.0614 10.5465 40.0614C9.86682 40.0614 9.31599 40.6127 9.31599 41.2918C9.31599 43.8388 10.4364 46.1935 12.2797 47.8003C7.21218 49.6585 4.42969 54.2267 4.42969 59.0687ZM51.1255 42.4194C50.7424 44.4829 49.3226 46.2344 47.3384 47.0212L39.884 46.0532L39.0876 42.9405C41.4115 41.5509 43.2635 39.5874 44.5045 37.2827C45.6624 39.9657 48.1493 41.9556 51.1255 42.4194ZM41.3659 22.1484C37.9667 22.1484 35.201 19.3482 35.201 15.9062C35.201 15.2266 34.6502 14.6757 33.9706 14.6757C33.2914 14.6757 32.7401 15.2266 32.7401 15.9062C32.7401 19.3482 29.9744 22.1484 26.5743 22.1484H19.1992C19.1992 15.3636 24.719 9.84375 31.5038 9.84375C38.3017 9.84375 43.8085 15.3453 43.8085 22.1484H41.3659ZM19.1953 24.6094H26.5743C29.7101 24.6094 32.4603 22.9132 33.9706 20.382C35.4808 22.9132 38.2306 24.6094 41.3659 24.6094H43.8047V30.2695C43.8047 34.9237 41.227 39.1279 37.078 41.2414C35.3419 42.1258 33.4663 42.5742 31.5038 42.5742C29.5466 42.5742 27.6769 42.1291 25.9456 41.2515C24.7839 40.6627 23.7259 39.8955 22.8007 38.9698C20.4758 36.6463 19.1953 33.5562 19.1953 30.2695V24.6094ZM26.1989 44.0537C27.8836 44.7045 29.662 45.0352 31.5038 45.0352C33.3529 45.0352 35.1381 44.7016 36.8299 44.0441L37.611 47.0986C37.201 50.145 34.6165 52.418 31.5159 52.418C28.4157 52.418 25.8312 50.1459 25.4202 47.1005L26.1989 44.0537ZM51.1875 31.5C51.1875 32.1787 50.6372 32.7305 49.9609 32.7305H46.2656V24.6094H49.9609C50.6372 24.6094 51.1875 25.1612 51.1875 25.8398V31.5ZM31.5038 2.46094C41.0006 2.46094 48.7266 10.1889 48.7266 19.6875V22.1484H46.2695C46.2695 13.9903 39.6668 7.38281 31.5038 7.38281C23.3621 7.38281 16.7382 14.0067 16.7382 22.1484H14.2734V19.6875C14.2734 10.1696 21.9807 2.46094 31.5038 2.46094ZM11.8125 31.5V25.8398C11.8125 25.1626 12.3652 24.6108 13.0468 24.6094H16.7344V32.7305H13.0468C12.3662 32.7305 11.8125 32.1787 11.8125 31.5ZM18.4974 37.2794C19.1718 38.5252 20.0302 39.6807 21.0607 40.7103C21.9278 41.5778 22.8944 42.3276 23.9403 42.952L23.1477 46.0537L15.6726 47.0236C13.6861 46.2363 12.2643 44.4838 11.8808 42.4194C14.856 41.9551 17.3414 39.9633 18.4974 37.2794ZM15.5424 49.5216L15.6779 49.5043H15.6789C15.6798 49.5038 15.6808 49.5038 15.6817 49.5038L23.2025 48.5281C24.1989 52.2305 27.5567 54.8789 31.5159 54.8789C35.475 54.8789 38.8323 52.2305 39.8283 48.5276C40.2032 48.5766 37.8528 48.2714 47.4879 49.522C52.8823 50.2228 56.1094 54.2656 56.1094 59.0663V60.5391H6.89062V59.0687C6.89062 54.3579 10.1158 50.2262 15.5424 49.5216Z" fill="#0099FF"/>
<path d="M28.2143 37.9887C29.2472 38.4756 30.3541 38.7227 31.5034 38.7227C32.6262 38.7227 33.711 38.4857 34.729 38.0185C35.3467 37.7354 35.6173 37.0048 35.3337 36.3872C35.0506 35.7695 34.32 35.4985 33.7023 35.782C33.0088 36.1002 32.269 36.2617 31.5038 36.2617C30.7199 36.2617 29.9658 36.094 29.2635 35.7628C28.6488 35.473 27.9158 35.7364 27.6259 36.3511C27.3361 36.9659 27.5995 37.6994 28.2143 37.9887Z" fill="#0099FF"/>
<path d="M42.5781 57.3398H47.4999C48.1796 57.3398 48.7304 56.789 48.7304 56.1094C48.7304 55.4297 48.1796 54.8789 47.4999 54.8789H42.5781C41.8984 54.8789 41.3476 55.4297 41.3476 56.1094C41.3476 56.789 41.8984 57.3398 42.5781 57.3398Z" fill="#0099FF"/>
<path d="M52.418 54.8789C53.0971 54.8789 53.6484 55.4302 53.6484 56.1094C53.6484 56.7885 53.0971 57.3398 52.418 57.3398C51.7388 57.3398 51.1875 56.7885 51.1875 56.1094C51.1875 55.4302 51.7388 54.8789 52.418 54.8789Z" fill="#0099FF"/>
</svg>
