<svg width="63" height="63" viewBox="0 0 63 63" fill="none" xmlns="http://www.w3.org/2000/svg">
<g clip-path="url(#clip0_9_472)">
<path d="M11.0805 48.7203C10.1985 48.7203 9.3506 48.9405 8.59838 49.3538C4.63589 44.2743 2.46094 37.9643 2.46094 31.5C2.46094 15.4876 15.4876 2.46094 31.5 2.46094C33.4466 2.46094 35.3923 2.65464 37.2832 3.03676C37.9484 3.17134 38.5983 2.74068 38.7329 2.07449C38.8674 1.40831 38.4368 0.75943 37.7706 0.624367C35.7196 0.210045 33.6101 0 31.5 0C23.0862 0 15.1756 3.2766 9.22611 9.22611C3.2766 15.1756 0 23.0862 0 31.5C0 38.5776 2.40326 45.4846 6.77863 51.0217C6.21531 51.8633 5.9125 52.8525 5.9125 53.8883C5.9125 55.2687 6.45035 56.5665 7.42655 57.5422C8.40228 58.5184 9.70004 59.0563 11.0805 59.0563C12.4609 59.0563 13.7587 58.5184 14.7349 57.5422C15.7111 56.5665 16.2484 55.2682 16.2484 53.8878C16.2484 52.5079 15.7111 51.2096 14.7349 50.2339C13.7587 49.2577 12.4609 48.7203 11.0805 48.7203ZM12.9944 55.8022C12.4835 56.3137 11.8034 56.5953 11.0805 56.5953C10.3576 56.5953 9.67793 56.3137 9.16651 55.8022C8.6551 55.2908 8.37344 54.6112 8.37344 53.8883C8.37344 53.1649 8.6551 52.4853 9.16651 51.9738C9.67745 51.4624 10.3576 51.1813 11.0805 51.1813C11.8034 51.1813 12.483 51.4629 12.9944 51.9738C13.5058 52.4853 13.7875 53.1649 13.7875 53.8883C13.7875 54.6112 13.5058 55.2908 12.9944 55.8022Z" fill="#0099FF"/>
<path d="M56.2204 11.9769C57.5581 9.97014 57.3432 7.22658 55.5739 5.4573C54.5977 4.48158 53.3 3.94373 51.9195 3.94373C50.5391 3.94373 49.2413 4.48158 48.2651 5.4573C47.2889 6.4335 46.7516 7.73126 46.7516 9.11169C46.7516 10.4921 47.2889 11.7899 48.2651 12.7661C49.2413 13.7423 50.5391 14.2797 51.9195 14.2797C52.8015 14.2797 53.6494 14.0595 54.4016 13.6462C58.3641 18.7262 60.5391 25.0357 60.5391 31.5C60.5391 47.5124 47.5124 60.539 31.5 60.539C29.5726 60.539 27.6452 60.3492 25.7721 59.9743C25.1059 59.8411 24.4575 60.2732 24.3239 60.9394C24.1907 61.6061 24.6228 62.254 25.289 62.3876C27.3207 62.7938 29.4106 63 31.5 63C39.9138 63 47.8244 59.7234 53.7739 53.7739C59.7234 47.8244 63 39.9138 63 31.5C63 24.4219 60.5963 17.5145 56.2204 11.9769ZM50.0056 11.0261C49.4942 10.5147 49.2125 9.83508 49.2125 9.11169C49.2125 8.38879 49.4942 7.70915 50.0056 7.19774C50.5165 6.68633 51.1966 6.40466 51.9195 6.40466C52.6424 6.40466 53.3226 6.68633 53.834 7.19774C54.889 8.25325 54.889 9.97062 53.834 11.0261C53.3226 11.5371 52.6424 11.8187 51.9195 11.8187C51.1962 11.8187 50.5165 11.5371 50.0056 11.0261Z" fill="#0099FF"/>
<path d="M26.4224 52.6641C26.4224 53.3437 26.9737 53.8945 27.6529 53.8945H35.3467C36.0263 53.8945 36.5771 53.3437 36.5771 52.6641V50.2786C38.195 49.8431 39.7417 49.2019 41.1952 48.3646L42.8794 50.0488C43.1101 50.2795 43.423 50.4093 43.7499 50.4093C44.0758 50.4093 44.3892 50.2795 44.6199 50.0484L50.058 44.6064C50.5381 44.1258 50.5381 43.3466 50.058 42.8665L48.3757 41.1842C49.213 39.7307 49.8542 38.1839 50.2896 36.5661H52.666C53.3456 36.5661 53.8964 36.0152 53.8964 35.3356V27.6418C53.8964 26.9622 53.3456 26.4113 52.666 26.4113H50.2892C49.8537 24.7939 49.213 23.2472 48.3757 21.7937L50.0488 20.1206C50.2795 19.8899 50.4093 19.5765 50.4093 19.2501C50.4088 18.9237 50.2791 18.6104 50.0483 18.3796L44.6059 12.9416C44.1258 12.4614 43.3466 12.4614 42.866 12.942L41.1952 14.6133C39.7417 13.776 38.195 13.1348 36.5771 12.6993V10.3359C36.5771 9.6563 36.0263 9.10547 35.3467 9.10547H27.6529C26.9737 9.10547 26.4224 9.6563 26.4224 10.3359V12.6998C24.805 13.1348 23.2583 13.776 21.8048 14.6133L20.1335 12.942C19.6534 12.4619 18.8742 12.4614 18.3936 12.9416L12.9516 18.3801C12.7204 18.6108 12.5907 18.9237 12.5907 19.2501C12.5907 19.5765 12.7204 19.8899 12.9512 20.1206L14.6243 21.7937C13.787 23.2472 13.1458 24.7935 12.7104 26.4113H10.3383C9.65869 26.4113 9.10787 26.9622 9.10787 27.6413L9.10354 35.3351C9.10306 35.6615 9.23284 35.9749 9.46355 36.2056C9.69426 36.4363 10.0072 36.5661 10.334 36.5661H12.7104C13.1458 38.1839 13.787 39.7307 14.6243 41.1842L12.942 42.8665C12.4619 43.3466 12.4614 44.1258 12.942 44.6064L18.3801 50.0484C18.6108 50.2791 18.9237 50.4093 19.2501 50.4093H19.2506C19.5769 50.4093 19.8898 50.2795 20.1206 50.0488L21.8043 48.3646C23.2583 49.2019 24.805 49.8431 26.4224 50.2786V52.6641ZM22.2869 45.7768C21.8 45.462 21.1593 45.5302 20.7488 45.9402L19.2506 47.4384L15.552 43.7369L17.0487 42.2397C17.4587 41.8297 17.527 41.189 17.2121 40.7021C16.0965 38.9756 15.3121 37.0833 14.8815 35.077C14.7594 34.5103 14.2585 34.1051 13.6784 34.1051H11.565L11.5678 28.8723H13.6784C14.2585 28.8723 14.7594 28.4676 14.8815 27.9004C15.3121 25.8946 16.0965 24.0023 17.2121 22.2758C17.527 21.7889 17.4587 21.1482 17.0487 20.7382L15.5616 19.2506L19.2631 15.552L20.7488 17.0381C21.1593 17.4481 21.7995 17.5159 22.2869 17.2016C24.0129 16.086 25.9052 15.3016 27.9114 14.8709C28.4781 14.7488 28.8833 14.2475 28.8833 13.6678V11.5664H34.1162V13.6673C34.1162 14.2475 34.5209 14.7488 35.0881 14.8704C37.0938 15.3016 38.9866 16.0855 40.7126 17.2011C41.1995 17.5159 41.8403 17.4481 42.2503 17.0377L43.7364 15.552L47.4379 19.2506L45.9508 20.7377C45.5403 21.1482 45.4725 21.7889 45.7874 22.2758C46.903 24.0023 47.6869 25.8946 48.1181 27.9004C48.2397 28.4676 48.741 28.8723 49.3211 28.8723H51.4355V34.1051H49.3211C48.741 34.1051 48.2401 34.5103 48.1181 35.077C47.6874 37.0828 46.903 38.9756 45.7874 40.7016C45.4725 41.189 45.5408 41.8297 45.9508 42.2397L47.4475 43.7364L43.7489 47.4379L42.2507 45.9402C41.8403 45.5297 41.1995 45.462 40.7126 45.7768C38.9861 46.8924 37.0938 47.6763 35.0881 48.1075C34.5209 48.2296 34.1162 48.7304 34.1162 49.3106V51.4336H28.8833V49.3106C28.8833 48.7309 28.4781 48.2296 27.9114 48.1075C25.9057 47.6768 24.0134 46.8924 22.2869 45.7768Z" fill="#0099FF"/>
<path d="M41.6672 31.5C41.6672 25.8937 37.1063 21.3328 31.5 21.3328C25.8937 21.3328 21.3328 25.8937 21.3328 31.5C21.3328 37.1063 25.8937 41.6672 31.5 41.6672C37.1063 41.6672 41.6672 37.1063 41.6672 31.5ZM23.7937 31.5C23.7937 27.2505 27.2506 23.7937 31.5 23.7937C35.7494 23.7937 39.2063 27.251 39.2063 31.5C39.2063 35.749 35.7494 39.2063 31.5 39.2063C27.2506 39.2063 23.7937 35.7494 23.7937 31.5Z" fill="#0099FF"/>
<path d="M42.8299 4.65366C43.1539 4.65366 43.4711 4.52197 43.6999 4.29317C43.9287 4.06294 44.0604 3.74571 44.0604 3.42175C44.0604 3.09972 43.9292 2.78201 43.6999 2.55177C43.4711 2.32298 43.1539 2.19128 42.8299 2.19128C42.505 2.19128 42.1892 2.32298 41.9604 2.55177C41.7312 2.78201 41.5995 3.09827 41.5995 3.42175C41.5995 3.74667 41.7312 4.06294 41.9604 4.29317C42.1892 4.52197 42.505 4.65366 42.8299 4.65366Z" fill="#0099FF"/>
<path d="M20.2239 58.3684C19.9004 58.3684 19.5827 58.5001 19.3539 58.7289C19.1251 58.9577 18.9934 59.2754 18.9934 59.5989C18.9934 59.9238 19.1251 60.2401 19.3539 60.4689C19.5827 60.6976 19.9004 60.8293 20.2239 60.8293C20.5474 60.8293 20.8651 60.6976 21.0939 60.4689C21.3227 60.2401 21.4544 59.9224 21.4544 59.5989C21.4544 59.2754 21.3227 58.9577 21.0939 58.7289C20.8651 58.5001 20.5474 58.3684 20.2239 58.3684Z" fill="#0099FF"/>
</g>
<defs>
<clipPath id="clip0_9_472">
<rect width="63" height="63" fill="white"/>
</clipPath>
</defs>
</svg>
