<svg width="63" height="63" viewBox="0 0 63 63" fill="none" xmlns="http://www.w3.org/2000/svg">
<g clip-path="url(#clip0_9_459)">
<path d="M13.5304 32.7305C12.8512 32.7305 12.2999 33.2818 12.2999 33.9609C12.2999 34.6401 12.8512 35.1914 13.5304 35.1914C14.2096 35.1914 14.7609 34.6401 14.7609 33.9609C14.7609 33.2818 14.2096 32.7305 13.5304 32.7305Z" fill="#0099FF"/>
<path d="M60.3016 25.1809C60.1848 24.5906 60.3848 23.7404 60.5775 22.918C60.8688 21.6784 61.198 20.2739 60.6655 18.9872C60.1219 17.6774 58.8818 16.9113 57.7873 16.2355C57.0803 15.7985 56.3487 15.3467 56.0286 14.868C55.7013 14.3787 55.5605 13.5236 55.4249 12.6969C55.2178 11.4347 54.9827 10.0038 53.9892 9.0103C52.9957 8.01679 51.5643 7.78223 50.3021 7.57507C49.4754 7.43953 48.6208 7.29918 48.133 6.9733C47.6533 6.65222 47.2019 5.92067 46.765 5.21315C46.0887 4.11871 45.3226 2.87766 44.0123 2.33453C42.7266 1.80148 41.3221 2.13121 40.083 2.422C39.2601 2.61523 38.4094 2.8147 37.8196 2.69838C37.2327 2.58206 36.3882 2.0793 35.5716 1.59288C34.257 0.809898 32.8973 0 31.5 0C30.1018 0 28.7415 0.809898 27.426 1.59288C26.6094 2.0793 25.7649 2.58206 25.178 2.69838C24.5887 2.8147 23.7384 2.61523 22.916 2.422C21.6764 2.13121 20.272 1.80148 18.9857 2.33453C17.676 2.87814 16.9098 4.11871 16.2335 5.21315C15.7971 5.92067 15.3453 6.65222 14.8666 6.97282C14.3787 7.29918 13.5241 7.43953 12.6974 7.57507C11.4347 7.78223 10.0038 8.01727 9.00934 9.01078C8.01679 10.0033 7.78223 11.4328 7.57507 12.6945C7.43953 13.5217 7.29918 14.3773 6.97041 14.8675C6.64982 15.3472 5.91875 15.7985 5.21171 16.2355C4.11774 16.9117 2.87766 17.6774 2.33453 18.9882C1.80196 20.2739 2.13073 21.6779 2.42104 22.9165C2.61378 23.7389 2.81326 24.5897 2.69598 25.1809C2.58014 25.7682 2.07738 26.6127 1.59096 27.4298C0.808937 28.7444 0 30.1032 0 31.5C0 32.8977 0.808937 34.2575 1.59144 35.5726C2.07738 36.3897 2.58014 37.2342 2.69598 37.823C2.81277 38.4123 2.61378 39.263 2.42104 40.0854C2.13073 41.3245 1.80196 42.7285 2.33453 44.0138C2.87814 45.324 4.11774 46.0897 5.21171 46.766C5.91875 47.2024 6.64982 47.6542 6.97186 48.1354C7.29918 48.6232 7.44001 49.4788 7.57555 50.306C7.78223 51.5672 8.01679 52.9967 9.00934 53.9907C10.0024 54.9832 11.4318 55.2178 12.6931 55.4249C13.5207 55.5605 14.3763 55.7008 14.8666 56.0296C15.3458 56.3502 15.7976 57.0813 16.2345 57.7883C16.9103 58.8823 17.6765 60.1219 18.9867 60.6655C20.2715 61.198 21.6755 60.8688 22.9146 60.579C23.737 60.3862 24.5882 60.1872 25.1785 60.304C25.7653 60.4199 26.6103 60.9226 27.4274 61.4086C28.7425 62.1911 30.1023 63 31.5 63C32.8968 63 34.2561 62.1911 35.5702 61.409C36.3873 60.9226 37.2323 60.4199 37.8201 60.304C38.4103 60.1872 39.2611 60.3862 40.0844 60.579C41.3231 60.8693 42.7271 61.198 44.0128 60.6655C45.3226 60.1223 46.0887 58.8823 46.7645 57.7883C47.2015 57.0813 47.6528 56.3502 48.1334 56.0291C48.6227 55.7008 49.4783 55.5605 50.3055 55.4249C51.5667 55.2178 52.9967 54.9832 53.9892 53.9907C54.9827 52.9976 55.2178 51.5667 55.4249 50.3045C55.5605 49.4773 55.7013 48.6227 56.0281 48.1334C56.3487 47.6542 57.0803 47.2024 57.7873 46.7655C58.8818 46.0897 60.1219 45.3235 60.6655 44.0133C61.198 42.7275 60.8688 41.3231 60.5775 40.084C60.3848 39.2616 60.1853 38.4118 60.3016 37.8225C60.4175 37.2351 60.9207 36.3906 61.4066 35.574C62.1901 34.2585 63 32.8982 63 31.5C63 30.1027 62.1901 28.743 61.4071 27.4284C60.9207 26.6118 60.4179 25.7673 60.3016 25.1809ZM59.2923 34.3152C58.6996 35.3111 58.0863 36.3411 57.8873 37.3442V37.3447C57.6676 38.456 57.9291 39.5692 58.1819 40.6463C58.3982 41.5668 58.6213 42.5185 58.3925 43.0712C58.1536 43.6475 57.31 44.1681 56.4944 44.6723C55.5634 45.2471 54.6011 45.8412 53.983 46.7655C53.3596 47.698 53.175 48.8203 52.9967 49.9056C52.8424 50.8453 52.6828 51.8172 52.2493 52.2502C51.8167 52.6828 50.8462 52.8424 49.9075 52.9962C48.8203 53.1745 47.6965 53.3591 46.7641 53.9844C45.8402 54.6021 45.2462 55.5643 44.6708 56.4949C44.1671 57.31 43.6466 58.1531 43.0703 58.392C42.517 58.6213 41.5658 58.3982 40.6454 58.1829C39.5682 57.9306 38.4541 57.6696 37.3428 57.8897C36.3387 58.0877 35.3082 58.701 34.3118 59.2942C33.3313 59.8777 32.22 60.5391 31.5 60.5391C30.779 60.5391 29.6673 59.8772 28.6858 59.2937C27.6894 58.7006 26.6589 58.0877 25.6562 57.8897C24.5503 57.6705 23.4462 57.9267 22.3532 58.1829C21.4332 58.3982 20.4815 58.6213 19.9288 58.3925C19.3525 58.1531 18.8319 57.31 18.3277 56.4949C17.7529 55.5643 17.1588 54.6021 16.2359 53.9849C15.3025 53.3591 14.1787 53.1745 13.0915 52.9962C12.1533 52.8424 11.1824 52.6833 10.7503 52.2507C10.3172 51.8176 10.1581 50.8467 10.0038 49.9075C9.82549 48.8208 9.6414 47.6965 9.01607 46.765C8.39795 45.8417 7.43616 45.2471 6.50562 44.6723C5.68996 44.1685 4.84689 43.6475 4.60801 43.0717C4.37874 42.5185 4.60176 41.5668 4.81709 40.6468C5.06944 39.5692 5.33043 38.4555 5.11029 37.3452C4.91226 36.3411 4.29943 35.3106 3.70631 34.3142C3.1228 33.3332 2.46094 32.221 2.46094 31.5C2.46094 30.78 3.12231 29.6687 3.70583 28.6882C4.29895 27.6918 4.91226 26.6613 5.10981 25.6582C5.33043 24.5464 5.06944 23.4323 4.81709 22.3551C4.60176 21.4347 4.37874 20.4835 4.60753 19.9302C4.84689 19.3534 5.68996 18.8329 6.50514 18.3292C7.43568 17.7538 8.39795 17.1598 9.01511 16.2369C9.64091 15.3035 9.82549 14.1797 10.0038 13.0925C10.1576 12.1538 10.3167 11.1833 10.7493 10.7512C11.1833 10.3177 12.1557 10.1581 13.0963 10.0038C14.1816 9.82549 15.3035 9.6414 16.2355 9.01799C17.1588 8.39939 17.7529 7.43713 18.3277 6.50658C18.8315 5.69044 19.3525 4.84689 19.9283 4.60801C20.4815 4.37874 21.4332 4.60176 22.3537 4.81805C23.4303 5.07088 24.544 5.33235 25.6558 5.11269C26.6589 4.91418 27.6889 4.30087 28.6848 3.70775C29.6663 3.12328 30.779 2.46094 31.5 2.46094C32.22 2.46094 33.3318 3.12328 34.3123 3.70727C35.3082 4.30039 36.3382 4.9137 37.3423 5.11269C38.4541 5.33235 39.5677 5.07088 40.6449 4.81805C41.5653 4.60224 42.517 4.37874 43.0698 4.60753C43.6461 4.84689 44.1671 5.69044 44.6708 6.50658C45.2457 7.43713 45.8402 8.39939 46.7645 9.01895C47.6965 9.6414 48.8184 9.82549 49.9037 10.0033C50.8438 10.1576 51.8157 10.3172 52.2493 10.7507C52.6823 11.1838 52.8424 12.1557 52.9967 13.0954C53.175 14.1812 53.3591 15.3035 53.983 16.2359C54.6011 17.1598 55.5634 17.7538 56.4944 18.3292C57.31 18.8329 58.1531 19.3534 58.392 19.9293C58.6213 20.483 58.3978 21.4347 58.1819 22.3551C57.9291 23.4323 57.6676 24.5459 57.8873 25.6577C58.0863 26.6618 58.6996 27.6918 59.2927 28.6877C59.8767 29.6682 60.5391 30.78 60.5391 31.5C60.5391 32.221 59.8767 33.3337 59.2923 34.3152Z" fill="#0099FF"/>
<path d="M31.4952 7.38281C18.6335 7.38281 7.37805 18.5959 7.37805 31.5C7.37805 44.3618 18.5912 55.6172 31.4952 55.6172C44.357 55.6172 55.6124 44.4041 55.6124 31.5C55.6124 18.6382 44.3993 7.38281 31.4952 7.38281ZM31.4952 53.1562C19.9586 53.1562 9.83899 43.0366 9.83899 31.5C9.83899 19.9634 19.9586 9.84375 31.4952 9.84375C43.0318 9.84375 53.1515 19.9634 53.1515 31.5C53.1515 43.0366 43.0318 53.1562 31.4952 53.1562Z" fill="#0099FF"/>
<path d="M31.4952 14.7656C32.1748 14.7656 32.7256 14.2148 32.7256 13.5352C32.7256 12.8555 32.1748 12.3047 31.4952 12.3047C22.2378 12.3047 13.7755 19.886 12.4868 28.867C12.3902 29.5394 12.8574 30.1628 13.5303 30.2594C13.5894 30.2681 13.6481 30.2719 13.7067 30.2719C14.3085 30.2719 14.8348 29.8297 14.9228 29.2159C16.0465 21.3832 23.6356 14.7656 31.4952 14.7656Z" fill="#0099FF"/>
<path d="M42.741 28.5964L35.7158 27.5759L32.5752 21.2102C32.3681 20.7901 31.9403 20.5243 31.4717 20.5243C31.0035 20.5243 30.5757 20.7901 30.3686 21.2102L27.2265 27.5759L20.2008 28.5964C19.7375 28.6636 19.3525 28.9886 19.2078 29.4341C19.0631 29.8792 19.1838 30.3685 19.5193 30.6954L24.6027 35.6504L23.4029 42.6482C23.3236 43.1096 23.5135 43.5763 23.8927 43.8513C24.2715 44.1267 24.7738 44.1627 25.1886 43.945L31.4717 40.641L37.7538 43.945C38.1642 44.1603 38.667 44.1296 39.0501 43.8513C39.4288 43.5763 39.6187 43.1096 39.5394 42.6477L38.3397 35.6504L43.4235 30.6954C43.759 30.368 43.8797 29.8792 43.735 29.4337C43.5898 28.9886 43.2048 28.6636 42.741 28.5964ZM36.1585 34.3397C35.8687 34.6223 35.736 35.0299 35.8047 35.4288L36.6925 40.6064L32.0446 38.1618C31.686 37.9734 31.2578 37.9734 30.8992 38.1618L26.2498 40.6064L27.1376 35.4288C27.2059 35.0299 27.0737 34.6228 26.7839 34.3397L23.0223 30.6737L28.2205 29.9186C28.6214 29.8605 28.9679 29.6086 29.1472 29.2452L31.4717 24.5353L33.7951 29.2452C33.9744 29.6086 34.321 29.8605 34.7218 29.9186L39.9201 30.6737L36.1585 34.3397Z" fill="#0099FF"/>
</g>
<defs>
<clipPath id="clip0_9_459">
<rect width="63" height="63" fill="white"/>
</clipPath>
</defs>
</svg>
