<svg width="15" height="15" viewBox="0 0 15 15" fill="none" xmlns="http://www.w3.org/2000/svg">
<path d="M14.6448 12.8298L11.1962 9.38093C11.7821 8.44809 12.1222 7.34554 12.1222 6.16229C12.1222 2.81471 9.40842 0.101318 6.06097 0.101318C2.71352 0.101318 0 2.81471 0 6.16229C0 9.50999 2.71339 12.2231 6.06097 12.2231C7.34865 12.2231 8.54137 11.8205 9.52283 11.1365L12.9304 14.5443C13.1672 14.7808 13.4776 14.8986 13.7876 14.8986C14.098 14.8986 14.408 14.7808 14.6452 14.5443C15.1183 14.0706 15.1183 13.3033 14.6448 12.8298ZM6.06097 10.2595C3.7984 10.2595 1.96404 8.42524 1.96404 6.16254C1.96404 3.89984 3.7984 2.06549 6.06097 2.06549C8.32367 2.06549 10.1579 3.89984 10.1579 6.16254C10.1579 8.42524 8.32367 10.2595 6.06097 10.2595Z" fill="#0099FF"/>
</svg>
