<svg width="25" height="25" viewBox="0 0 25 25" fill="none" xmlns="http://www.w3.org/2000/svg">
<path d="M21.9 14.6C23.35 8.10004 17.65 2.20004 10.95 3.32504C7.325 1.07504 2.5 3.62504 2.5 7.95004C2.5 8.95004 2.775 9.90004 3.25 10.7C1.925 17.225 7.65 23.05 14.35 21.825C19.075 24.325 24.275 19.35 21.9 14.6ZM15.55 18.525C13.8 19.25 10.9 19.25 9.15 18.325C6.65 17 6.225 14 8.375 14C10 14 9.475 15.9 11.125 16.65C11.875 17 13.5 17.025 14.425 16.4C15.35 15.775 15.275 14.8 14.775 14.35C13.45 13.125 9.625 13.6 7.875 11.45C7.125 10.525 6.975 8.87504 7.9 7.67504C9.525 5.57504 14.3 5.45004 16.35 7.02504C18.25 8.50004 17.725 10.425 16.2 10.425C14.375 10.425 15.325 8.02504 12.35 8.02504C10.2 8.02504 9.35 9.55004 10.875 10.3C12.925 11.35 18.15 11 18.15 15C18.15 16.65 17.125 17.875 15.55 18.525Z" fill="#0099FF"/>
</svg>
