<svg width="45" height="45" viewBox="0 0 45 45" fill="none" xmlns="http://www.w3.org/2000/svg">
<path d="M22.5 0.912354C12.4537 0.912354 3.49089 8.1333 1.38934 17.9662C0.33939 22.8794 1.04669 28.1038 3.38914 32.5495C5.64359 36.8279 9.33959 40.2858 13.7616 42.2454C18.3612 44.2843 23.6418 44.6395 28.4763 43.2491C33.1403 41.9082 37.2757 38.9652 40.0912 35.0145C45.9778 26.7552 45.1908 15.1535 38.2652 7.7527C34.2062 3.4154 28.4411 0.912354 22.5 0.912354ZM32.8559 23.6532L26.9709 29.6801C25.481 31.2064 23.1259 28.8941 24.6098 27.375L27.5792 24.3341H13.5069C12.5076 24.3341 11.6738 23.4998 11.6738 22.501C11.6738 21.5022 12.5081 20.6678 13.5069 20.6678H27.5088L24.4805 17.6401C22.9757 16.1353 25.3088 13.8016 26.8136 15.3064L32.8422 21.3344C33.4813 21.973 33.4873 23.007 32.8559 23.6532Z" fill="black" fill-opacity="0.3"/>
</svg>
