<svg width="45" height="45" viewBox="0 0 45 45" fill="none" xmlns="http://www.w3.org/2000/svg">
<path d="M22.5 0.912354C32.5463 0.912354 41.5091 8.1333 43.6107 17.9662C44.6606 22.8794 43.9533 28.1038 41.6109 32.5495C39.3564 36.8279 35.6604 40.2858 31.2384 42.2454C26.6388 44.2843 21.3582 44.6395 16.5237 43.2491C11.8597 41.9082 7.72426 38.9652 4.90881 35.0145C-0.977841 26.7552 -0.190791 15.1535 6.73481 7.7527C10.7938 3.4154 16.5589 0.912354 22.5 0.912354V0.912354ZM12.1441 23.6532L18.0291 29.6801C19.519 31.2064 21.8741 28.8942 20.3902 27.3751L17.4208 24.3341H31.4931C32.4924 24.3341 33.3262 23.4998 33.3262 22.501C33.3262 21.5022 32.4919 20.6678 31.4931 20.6678H17.4912L20.5195 17.6401C22.0243 16.1353 19.6912 13.8016 18.1864 15.3064L12.1578 21.3344C11.5187 21.973 11.5127 23.007 12.1441 23.6532V23.6532Z" fill="black" fill-opacity="0.1"/>
</svg>
